Right_states
version=1
nRows=4
nColumns=140
inDegrees=yes

# SIMM Motion File Header:
name Right_states
datacolumns 140
datarows 4
otherdata 1
range 0.25082931 0.25245698
endheader
time	/jointset/sternoclavicular/sternoclavicular_r2/value	/jointset/sternoclavicular/sternoclavicular_r2/speed	/jointset/sternoclavicular/sternoclavicular_r3/value	/jointset/sternoclavicular/sternoclavicular_r3/speed	/jointset/unrotscap/unrotscap_r3/value	/jointset/unrotscap/unrotscap_r3/speed	/jointset/unrotscap/unrotscap_r2/value	/jointset/unrotscap/unrotscap_r2/speed	/jointset/acromioclavicular/acromioclavicular_r2/value	/jointset/acromioclavicular/acromioclavicular_r2/speed	/jointset/acromioclavicular/acromioclavicular_r3/value	/jointset/acromioclavicular/acromioclavicular_r3/speed	/jointset/acromioclavicular/acromioclavicular_r1/value	/jointset/acromioclavicular/acromioclavicular_r1/speed	/jointset/unrothum/unrothum_r1/value	/jointset/unrothum/unrothum_r1/speed	/jointset/unrothum/unrothum_r3/value	/jointset/unrothum/unrothum_r3/speed	/jointset/unrothum/unrothum_r2/value	/jointset/unrothum/unrothum_r2/speed	/jointset/shoulder0/elv_angle/value	/jointset/shoulder0/elv_angle/speed	/jointset/shoulder1/shoulder_elv/value	/jointset/shoulder1/shoulder_elv/speed	/jointset/shoulder1/shoulder1_r2/value	/jointset/shoulder1/shoulder1_r2/speed	/jointset/shoulder2/shoulder_rot/value	/jointset/shoulder2/shoulder_rot/speed	/jointset/elbow/elbow_flexion/value	/jointset/elbow/elbow_flexion/speed	/jointset/radioulnar/pro_sup/value	/jointset/radioulnar/pro_sup/speed	/jointset/radiocarpal/deviation/value	/jointset/radiocarpal/deviation/speed	/jointset/radiocarpal/flexion/value	/jointset/radiocarpal/flexion/speed	/jointset/wrist_hand/wrist_hand_r1/value	/jointset/wrist_hand/wrist_hand_r1/speed	/jointset/wrist_hand/wrist_hand_r3/value	/jointset/wrist_hand/wrist_hand_r3/speed	/forceset/DELT1/activation	/forceset/DELT1/fiber_length	/forceset/DELT2/activation	/forceset/DELT2/fiber_length	/forceset/DELT3/activation	/forceset/DELT3/fiber_length	/forceset/SUPSP/activation	/forceset/SUPSP/fiber_length	/forceset/INFSP/activation	/forceset/INFSP/fiber_length	/forceset/SUBSC/activation	/forceset/SUBSC/fiber_length	/forceset/TMIN/activation	/forceset/TMIN/fiber_length	/forceset/TMAJ/activation	/forceset/TMAJ/fiber_length	/forceset/PECM1/activation	/forceset/PECM2/activation	/forceset/PECM2/fiber_length	/forceset/PECM3/activation	/forceset/PECM3/fiber_length	/forceset/LAT1/activation	/forceset/LAT1/fiber_length	/forceset/LAT2/activation	/forceset/LAT2/fiber_length	/forceset/LAT3/activation	/forceset/LAT3/fiber_length	/forceset/CORB/activation	/forceset/CORB/fiber_length	/forceset/TRIlong/activation	/forceset/TRIlong/fiber_length	/forceset/TRIlat/activation	/forceset/TRIlat/fiber_length	/forceset/TRImed/activation	/forceset/TRImed/fiber_length	/forceset/ANC/activation	/forceset/ANC/fiber_length	/forceset/SUP/activation	/forceset/SUP/fiber_length	/forceset/BIClong/activation	/forceset/BIClong/fiber_length	/forceset/BICshort/activation	/forceset/BICshort/fiber_length	/forceset/BRA/activation	/forceset/BRA/fiber_length	/forceset/BRD/activation	/forceset/BRD/fiber_length	/forceset/ECRL/activation	/forceset/ECRL/fiber_length	/forceset/ECRB/activation	/forceset/ECRB/fiber_length	/forceset/ECU/activation	/forceset/ECU/fiber_length	/forceset/FCR/activation	/forceset/FCR/fiber_length	/forceset/FCU/activation	/forceset/FCU/fiber_length	/forceset/PL/activation	/forceset/PL/fiber_length	/forceset/PT/activation	/forceset/PT/fiber_length	/forceset/PQ/activation	/forceset/PQ/fiber_length	/forceset/FDSL/activation	/forceset/FDSL/fiber_length	/forceset/FDSR/activation	/forceset/FDSR/fiber_length	/forceset/FDSM/activation	/forceset/FDSM/fiber_length	/forceset/FDSI/activation	/forceset/FDSI/fiber_length	/forceset/FDPL/activation	/forceset/FDPL/fiber_length	/forceset/FDPR/activation	/forceset/FDPR/fiber_length	/forceset/FDPM/activation	/forceset/FDPM/fiber_length	/forceset/FDPI/activation	/forceset/FDPI/fiber_length	/forceset/EDCL/activation	/forceset/EDCL/fiber_length	/forceset/EDCR/activation	/forceset/EDCR/fiber_length	/forceset/EDCM/activation	/forceset/EDCM/fiber_length	/forceset/EDCI/activation	/forceset/EDCI/fiber_length	/forceset/EDM/activation	/forceset/EDM/fiber_length	/forceset/EIP/activation	/forceset/EIP/fiber_length	/forceset/EPL/activation	/forceset/EPL/fiber_length	/forceset/EPB/activation	/forceset/EPB/fiber_length	/forceset/FPL/activation	/forceset/FPL/fiber_length	/forceset/APL/activation	/forceset/APL/fiber_length
      0.25082931	     -1.84185216	     19.59036420	      0.78012164	     -8.29755366	     -0.78012164	      8.29755366	      1.84185216	    -19.59036420	     -0.37293760	      3.96665025	      3.01395046	    -32.05707205	      1.35474999	    -14.40943326	     -1.35474999	     14.40943326	     -3.01395046	     32.05707205	      0.37293760	     -3.96665025	    -36.33316991	     10.50977608	      7.61094226	    -80.95173675	     36.33316991	    -10.50977608	      7.77617201	     57.03814865	    103.65713263	   -206.23551050	     -2.32604903	     57.92259598	     -0.12409675	      0.07610252	      1.03669512	     -1.57929007	    -10.37177958	      6.80342215	     29.69912752	    -45.24332768	      0.01123744	      0.12427779	      0.01123744	      0.09902456	      0.01123744	      0.11909168	      0.01123744	      0.07218155	      0.01123744	      0.08143896	      0.01123744	      0.07848383	      0.01123744	      0.06347447	      0.01123744	      0.12007481	      0.01123744	      0.01123744	      0.10257695	      0.01123744	      0.07847383	      0.01123744	      0.16629911	      0.01123744	      0.12995814	      0.01123744	      0.19407183	      0.01123744	      0.06963003	      0.01123744	      0.17354604	      0.01123744	      0.10926370	      0.01123744	      0.10416998	      0.01123744	      0.02447646	      0.01123744	      0.03378813	      0.01123744	      0.10316917	      0.01123744	      0.10573742	      0.01123744	      0.06315753	      0.01123744	      0.10945198	      0.01123744	      0.06444999	      0.01123744	      0.07151056	      0.01123744	      0.07756201	      0.01123744	      0.03121813	      0.01123744	      0.02320488	      0.01123744	      0.02918683	      0.01123744	      0.04034006	      0.01123744	      0.02691006	      0.01123744	      0.02339407	      0.01123744	      0.03748671	      0.01123744	      0.05391965	      0.01123744	      0.06615832	      0.01123744	      0.05959648	      0.01123744	      0.06262988	      0.01123744	      0.05850032	      0.01123744	      0.05770741	      0.01123744	      0.08857859	      0.01123744	      0.08154105	      0.01123744	      0.09308801	      0.01123744	      0.08599278	      0.01123744	      0.08870534	      0.01123744	      0.07740803	      0.01123744	      0.06673405	      0.01123744	      0.06120701	      0.01123744	      0.04205649	      0.01123744	      0.05499967
      0.25131780	     -1.83228292	     19.58824879	      0.77606856	     -8.29665767	     -0.77606856	      8.29665767	      1.83228292	    -19.58824879	     -0.37100002	      3.96622193	      2.99829165	    -32.05361046	      1.34771146	    -14.40787730	     -1.34771146	     14.40787730	     -2.99829165	     32.05361046	      0.37100002	     -3.96622193	    -36.32803626	     10.50856432	      7.57140004	    -80.94299542	     36.32803626	    -10.50856432	      7.80398116	     56.81875022	    103.55625996	   -206.75977975	     -2.29774460	     57.96214679	     -0.12405959	      0.07600519	      1.03592073	     -1.59122015	    -10.36845818	      6.79445618	     29.67694289	    -45.58509952	      0.01116674	      0.12425136	      0.01116674	      0.09903547	      0.01116674	      0.11912703	      0.01116674	      0.07219096	      0.01116674	      0.08144731	      0.01116674	      0.07848578	      0.01116674	      0.06348056	      0.01116674	      0.12008514	      0.01116674	      0.01116674	      0.10254574	      0.01116674	      0.07845005	      0.01116674	      0.16630653	      0.01116674	      0.12996781	      0.01116674	      0.19407781	      0.01116674	      0.06960804	      0.01116674	      0.17352846	      0.01116674	      0.10923072	      0.01116674	      0.10413699	      0.01116674	      0.02446650	      0.01116674	      0.03379216	      0.01116674	      0.10324766	      0.01116674	      0.10579969	      0.01116674	      0.06319975	      0.01116674	      0.10959794	      0.01116674	      0.06449839	      0.01116674	      0.07149978	      0.01116674	      0.07755881	      0.01116674	      0.03124697	      0.01116674	      0.02320470	      0.01116674	      0.02918654	      0.01116674	      0.04036145	      0.01116674	      0.02690659	      0.01116674	      0.02339394	      0.01116674	      0.03752062	      0.01116674	      0.05393547	      0.01116674	      0.06617422	      0.01116674	      0.05960992	      0.01116674	      0.06264418	      0.01116674	      0.05851477	      0.01116674	      0.05772170	      0.01116674	      0.08857780	      0.01116674	      0.08153739	      0.01116674	      0.09308324	      0.01116674	      0.08598908	      0.01116674	      0.08870068	      0.01116674	      0.07740061	      0.01116674	      0.06673259	      0.01116674	      0.06121141	      0.01116674	      0.04207085	      0.01116674	      0.05501282
      0.25180630	     -1.82271474	     19.58602930	      0.77201593	     -8.29571760	     -0.77201593	      8.29571760	      1.82271474	    -19.58602930	     -0.36906266	      3.96577252	      2.98263458	    -32.04997854	      1.34067371	    -14.40624478	     -1.34067371	     14.40624478	     -2.98263458	     32.04997854	      0.36906266	     -3.96577252	    -36.32290320	     10.50734708	      7.53186220	    -80.93382397	     36.32290320	    -10.50734708	      7.83168322	     56.59983087	    103.45513149	   -207.28285333	     -2.26942162	     57.99794991	     -0.12402248	      0.07594624	      1.03514053	     -1.60311137	    -10.36514060	      6.78892137	     29.65459164	    -45.92575781	      0.01109650	      0.12422493	      0.01109650	      0.09904634	      0.01109650	      0.11916235	      0.01109650	      0.07220035	      0.01109650	      0.08145563	      0.01109650	      0.07848775	      0.01109650	      0.06348664	      0.01109650	      0.12009685	      0.01109650	      0.01109650	      0.10251454	      0.01109650	      0.07842632	      0.01109650	      0.16631396	      0.01109650	      0.12997749	      0.01109650	      0.19408383	      0.01109650	      0.06958607	      0.01109650	      0.17351077	      0.01109650	      0.10919765	      0.01109650	      0.10410391	      0.01109650	      0.02445659	      0.01109650	      0.03379620	      0.01109650	      0.10332638	      0.01109650	      0.10586220	      0.01109650	      0.06324207	      0.01109650	      0.10974423	      0.01109650	      0.06454684	      0.01109650	      0.07148894	      0.01109650	      0.07755558	      0.01109650	      0.03127597	      0.01109650	      0.02320453	      0.01109650	      0.02918626	      0.01109650	      0.04038290	      0.01109650	      0.02690312	      0.01109650	      0.02339380	      0.01109650	      0.03755472	      0.01109650	      0.05395141	      0.01109650	      0.06619024	      0.01109650	      0.05962345	      0.01109650	      0.06265858	      0.01109650	      0.05852932	      0.01109650	      0.05773609	      0.01109650	      0.08857696	      0.01109650	      0.08153367	      0.01109650	      0.09307839	      0.01109650	      0.08598530	      0.01109650	      0.08869596	      0.01109650	      0.07739312	      0.01109650	      0.06673109	      0.01109650	      0.06121583	      0.01109650	      0.04208532	      0.01109650	      0.05502606
      0.25245698	     -1.80997150	     19.58293071	      0.76661850	     -8.29440519	     -0.76661850	      8.29440519	      1.80997150	    -19.58293071	     -0.36648241	      3.96514512	      2.96178193	    -32.04490811	      1.33130059	    -14.40396566	     -1.33130059	     14.40396566	     -2.96178193	     32.04490811	      0.36648241	     -3.96514512	    -36.31606680	     10.50573368	      7.47920430	    -80.92101992	     36.31606680	    -10.50573368	      7.86841675	     56.30806619	    103.32003049	   -207.97762624	     -2.23166864	     58.04409432	     -0.12397309	      0.07582605	      1.03409229	     -1.61882324	    -10.36072606	      6.77782632	     29.62456189	    -46.37586964	      0.01100364	      0.12418972	      0.01100364	      0.09906080	      0.01100364	      0.11920935	      0.01100364	      0.07221281	      0.01100364	      0.08146667	      0.01100364	      0.07849041	      0.01100364	      0.06349472	      0.01100364	      0.12011094	      0.01100364	      0.01100364	      0.10247302	      0.01100364	      0.07839481	      0.01100364	      0.16632390	      0.01100364	      0.12999044	      0.01100364	      0.19409190	      0.01100364	      0.06955684	      0.01100364	      0.17348707	      0.01100364	      0.10915348	      0.01100364	      0.10405972	      0.01100364	      0.02444346	      0.01100364	      0.03380157	      0.01100364	      0.10343158	      0.01100364	      0.10594586	      0.01100364	      0.06329859	      0.01100364	      0.10993958	      0.01100364	      0.06461146	      0.01100364	      0.07147439	      0.01100364	      0.07755122	      0.01100364	      0.03131485	      0.01100364	      0.02320430	      0.01100364	      0.02918588	      0.01100364	      0.04041156	      0.01100364	      0.02689849	      0.01100364	      0.02339363	      0.01100364	      0.03760044	      0.01100364	      0.05397283	      0.01100364	      0.06621175	      0.01100364	      0.05964162	      0.01100364	      0.06267792	      0.01100364	      0.05854887	      0.01100364	      0.05775540	      0.01100364	      0.08857577	      0.01100364	      0.08152859	      0.01100364	      0.09307181	      0.01100364	      0.08598012	      0.01100364	      0.08868959	      0.01100364	      0.07738304	      0.01100364	      0.06672904	      0.01100364	      0.06122174	      0.01100364	      0.04210476	      0.01100364	      0.05504383
